<svg id="Layer_1" data-name="Layer 1" xmlns="http://www.w3.org/2000/svg" viewBox="0 0 161.16 87.54"><defs><style>.cls-1{fill:#010101;}</style></defs><path d="M78.77,31.35h4L80.65,28,76.8,34.08H75l4.69-7.34a1.11,1.11,0,0,1,1.82,0l4.7,7.35H84.5l-.83-1.37h-4l-.88-1.36M97,32.71V26.34H95.5v7a.7.7,0,0,0,.22.51.74.74,0,0,0,.54.23h6.79l.88-1.37H97M72.37,31.57a2.62,2.62,0,0,0,0-5.23H65.86v7.74h1.49V27.71h4.92a1.25,1.25,0,0,1,0,2.5h-4.2l4.45,3.87h2.16l-3-2.51h.68M56.7,34.08h4.5a3.87,3.87,0,0,0,0-7.74H56.7a3.87,3.87,0,0,0,0,7.74m4.4-1.36H56.8a2.51,2.51,0,0,1,0-5h4.3a2.51,2.51,0,0,1,0,5m28.26,1.36H94l.87-1.36H89.46a2.51,2.51,0,1,1,0-5h4.37l.88-1.37H89.36a3.87,3.87,0,1,0,0,7.74m18.2-1.36a2.51,2.51,0,0,1-2.41-1.83h6.36l.88-1.36h-7.24a2.5,2.5,0,0,1,2.41-1.82h4.37l.87-1.37h-5.34a3.87,3.87,0,0,0,0,7.74h4.6l.87-1.36h-5.37"/><path d="M17.26,36a9.46,9.46,0,0,0,1.47-.2c1.28-.33,1.78-1.29,1.76-3.32s-.54-2.92-1.68-3.32a2.68,2.68,0,0,0-2.43.31,2.62,2.62,0,0,0-1,1.46C14.69,34.14,15,35.61,17.1,36Z"/><path d="M3.18,30.63H3a7.7,7.7,0,0,0-1.45.3C.31,31.34-.12,32.33,0,34.36s.72,2.87,1.89,3.2a2.69,2.69,0,0,0,2.4-.47,2.67,2.67,0,0,0,.91-1.52C5.71,32.29,5.27,30.84,3.18,30.63Z"/><path d="M39.67,82.27c-.25-1.42-.34-1.48-1.77-1.24l-4.17.72a1.09,1.09,0,0,1-1.43-.89c-.44-1.47-1-2.91-1.48-4.37-.76-2.24-1.5-4.49-2.25-6.74,1.6-1.42,2.81-3.65,3.65-7.09.17-.68.28-1.38.43-2.06,1.37-6.49-.49-9.51-6.79-11l.23-.11C37,43.72,40.18,35.13,39.62,25.24c-.22-4-2.65-6.3-6.94-7.74A53.25,53.25,0,0,0,20.29,15c-.08-1.91-.16-3.69-.25-5.6C21.34,9,22.23,8,22.77,5.75c.07-.28.12-.57.18-.85.57-2.72-.22-4-2.89-4.58C19.55.21,19,.1,18.52,0a4.54,4.54,0,0,0-5.19,4.57,5.18,5.18,0,0,0,3.39,4.92c.07,1.75.15,3.51.23,5.26-1.2,0-2.4,0-3.61,0-3.6.07-7.19.18-10.64.27.31,3,.63,6,.94,8.89.2-.06.4-.11.64-.16a7.62,7.62,0,0,1,.81-.14l3.57-.35a30.06,30.06,0,0,1,18.58,3.27A5.5,5.5,0,0,1,30.46,31c.2,2.65.13,5.32-1.38,7.87A11.46,11.46,0,0,1,22.41,44,64,64,0,0,1,8.15,46.62,5.64,5.64,0,0,1,6,46.55q.34,3.21.69,6.47c1.82-.12,3.58-.21,5.29-.33a10.84,10.84,0,0,0-1.82,3.13,15.06,15.06,0,0,0-.67,2A48.2,48.2,0,0,0,8.61,69.9c.21,5,1.07,9.91.41,14.93-.23,1.74.21,2.23,1.84,2.41l2.6.28c3.09.32,3.09-3.85,2.63-6.39a2.7,2.7,0,0,1-.11-.75c-.05-2.14-.26-4.27-.38-6.4l-.18-3.15a8.32,8.32,0,0,0,4,1.25,24,24,0,0,0,4.36-.22,32.64,32.64,0,0,0,.85,3.23c1.08,3.42,2.65,6.68,3.08,10.3.14,1.26.57,1.51,1.86,1.3,2.7-.43,5.4-.89,8.09-1.41C40,84.83,40.09,84.61,39.67,82.27Z"/><path class="cls-1" d="M52.83,68.63V42.18h7.93q6.41,0,9.66,3.35t3.25,9.89q0,6.55-3.25,9.88t-9.66,3.33Zm7.86-23.58H56.21v20.7h4.48c3.2,0,5.58-.85,7.16-2.54s2.37-4.3,2.37-7.79Q70.22,45.05,60.69,45.05Z"/><path class="cls-1" d="M92.44,67.68a8.83,8.83,0,0,1-2.71,1A17.74,17.74,0,0,1,86,69q-4.52,0-6.82-2.57T76.91,59q0-4.77,2.2-7.24a8,8,0,0,1,6.31-2.47q7.93,0,7.93,8.76v2.11H80.22a7,7,0,0,0,1.71,4.68,6.07,6.07,0,0,0,4.44,1.47,13.94,13.94,0,0,0,3.09-.33,15,15,0,0,0,3-1Zm-7-15.75a4.83,4.83,0,0,0-3.73,1.44,6.47,6.47,0,0,0-1.47,4.16h10a6.61,6.61,0,0,0-1.11-4.29A4.53,4.53,0,0,0,85.42,51.93Z"/><path class="cls-1" d="M102.74,68.63l-7.46-19H98.7l5.49,15.06,5.46-15.06H113l-7.49,19Z"/><path class="cls-1" d="M116.45,68.63V42.18h9q9.21,0,9.21,7.78c0,4.06-2.06,6.55-6.19,7.5l7.35,11.17H132l-6.7-10.48-5.45-.87V68.63ZM119.8,55h4q4.08,0,5.75-1.15A4.37,4.37,0,0,0,131.25,50a5.65,5.65,0,0,0-.69-3,3.92,3.92,0,0,0-2.31-1.6,16.09,16.09,0,0,0-4.42-.49h-4Z"/><path class="cls-1" d="M152.83,67.68a8.93,8.93,0,0,1-2.71,1,17.77,17.77,0,0,1-3.7.37c-3,0-5.28-.86-6.82-2.57s-2.31-4.21-2.31-7.51.74-5.59,2.2-7.24a8,8,0,0,1,6.32-2.47q7.92,0,7.93,8.76v2.11H140.6a7.1,7.1,0,0,0,1.71,4.68,6.1,6.1,0,0,0,4.44,1.47,13.94,13.94,0,0,0,3.09-.33,15.06,15.06,0,0,0,3-1Zm-7-15.75a4.8,4.8,0,0,0-3.73,1.44,6.42,6.42,0,0,0-1.48,4.16h10a6.61,6.61,0,0,0-1.11-4.29A4.52,4.52,0,0,0,145.81,51.93Z"/><path class="cls-1" d="M157.88,68.63V43.85L156,42.65V41.31h5.17V68.63Z"/></svg>