<svg width="14" height="19" viewBox="0 0 14 19" fill="none" xmlns="http://www.w3.org/2000/svg">
<line x1="6.55671e-08" y1="17.75" x2="14" y2="17.75" stroke="#00747A" stroke-width="1.5"/>
<path d="M7.75 1.5L7.75 0.75L6.25 0.75L6.25 1.5L7.75 1.5ZM6.46967 16.0303C6.76256 16.3232 7.23744 16.3232 7.53033 16.0303L12.3033 11.2574C12.5962 10.9645 12.5962 10.4896 12.3033 10.1967C12.0104 9.90381 11.5355 9.90381 11.2426 10.1967L7 14.4393L2.75736 10.1967C2.46447 9.90381 1.98959 9.90381 1.6967 10.1967C1.40381 10.4896 1.40381 10.9645 1.6967 11.2574L6.46967 16.0303ZM6.25 1.5L6.25 15.5L7.75 15.5L7.75 1.5L6.25 1.5Z" fill="#00747A"/>
</svg>
